<?xml version="1.0" standalone="no"?>
<!DOCTYPE svg PUBLIC "-//W3C//DTD SVG 20010904//EN"
 "http://www.w3.org/TR/2001/REC-SVG-20010904/DTD/svg10.dtd">
<svg version="1.0" xmlns="http://www.w3.org/2000/svg"
 width="840.000000pt" height="840.000000pt" viewBox="0 0 840.000000 840.000000"
 preserveAspectRatio="xMidYMid meet">
<metadata>
Created by potrace 1.14, written by Peter Selinger 2001-2017
</metadata>
<g transform="translate(0.000000,840.000000) scale(0.100000,-0.100000)"
fill="#000000" stroke="none">
<path d="M3805 6353 c-214 -362 -430 -728 -481 -813 -50 -85 -216 -366 -369
-625 -153 -258 -307 -519 -343 -580 -35 -60 -67 -113 -69 -117 -2 -5 741 -8
1652 -8 1574 0 1657 1 1650 18 -6 16 -98 173 -580 987 -303 511 -1015 1718
-1041 1763 -10 17 -21 32 -25 32 -3 0 -181 -296 -394 -657z"/>
<path d="M2468 4092 c-31 -53 -120 -205 -199 -337 -78 -132 -163 -276 -189
-320 -25 -44 -98 -168 -162 -275 -63 -107 -269 -456 -458 -775 -188 -319 -394
-667 -457 -773 -62 -106 -116 -199 -119 -207 -5 -13 196 -15 1649 -15 l1656 0
-78 133 c-43 72 -225 382 -406 687 -181 305 -360 609 -399 676 -274 467 -772
1304 -776 1304 -3 0 -30 -44 -62 -98z"/>
<path d="M5820 4120 c-23 -41 -84 -145 -135 -230 -51 -85 -144 -243 -207 -350
-64 -107 -240 -406 -393 -665 -394 -667 -727 -1231 -807 -1365 l-68 -115 1652
-3 c908 -1 1653 0 1655 2 2 1 -85 153 -194 337 -108 184 -245 415 -303 514
-505 857 -1123 1899 -1141 1926 -16 23 -16 23 -59 -51z"/>
</g>
</svg>
